<?xml version="1.0" encoding="UTF-8" standalone="no"?>
<!-- Created with Inkscape (http://www.inkscape.org/) -->
<svg
   xmlns:svg="http://www.w3.org/2000/svg"
   xmlns="http://www.w3.org/2000/svg"
   version="1.0"
   width="94"
   height="77.191414"
   id="svg2">
  <defs
     id="defs19635" />
  <title
     id="title4">
	
      guitar.aoi
   </title>
  <g
     transform="matrix(0.1,0,0,0.1,29.2,21.891418)"
     id="g3228">
    <path
       d="M 217,-86 L 150.56383,13.441007 L -12,544 L -23,548 L -23,548 L -34,551 L -45,553 L -56,553 L -67,551 L -67,551 L -73,550 L -80,548 L -91,544 L -95,542 L -104,540 L -115,538 L -115,538 L -121,536 L -127,534 L -132,532 L -138,529 L -144,526 L -150,522 L -160,515 L -160,515 L -169,508 L -176,501 L -183,491 L -183,491 L -187,486 L -191,480 L -191,480 L -196,473 L -200,464 L -210,447 L -220,428 L -230,410 L -230,410 L -240,393 L -240,393 L -244,385 L -249,376 L -254,368 L -258,360 L -266,344 L -266,344 L -273,329 L -278,315 L -286,285 L -286,285 L -290,251 L -292,217 L -292,217 L -291,191 L -283,165 L -283,165 L -259,131 L -230,102 L -230,102 L -208,87 L -185,79 L -185,79 L -160,75 L -160,75 L -147,73 L -133,72 L -123,72 L -117,71 L -111,71 L -106,70 L -100,70 L -88,69 L -88,69 L -75,67 L -61,65 L -48,62 L -36,59 L -36,59 L -27,56 L -19,52 L -11,47 L -3,40 L -3,40 L 6,30 L 17,19 L 27,7 L 37,-3 L 37,-3 L 44,-14 L 52,-24 L 58,-33 L 65,-42 L 65,-42 L 71,-49 L 78,-55 L 92,-65 L 92,-65 L 108,-76 L 125,-84 L 125,-84 L 141,-87 L 169,-91 L 169,-91 L 193,-95 L 207,-93 L 217,-86 z M -85,69 L -85,69"
       id="line13304"
       style="fill:#c70000;fill-opacity:1;stroke:none" />
    <path
       d="M 266.94283,214.8479 L 264,212 L 239,211 L 221,209 L 213,210 L 203,213 L 204.09924,221.11327 L 246.24811,225.38511 L 265.8986,217.22114 L 266.94283,214.8479 z"
       id="line17604"
       style="fill:#c70000;fill-opacity:1;stroke:none;stroke-opacity:1" />
    <g
       id="g69482"
       style="fill:#cccccc;stroke:none">
      <path
         d="M 615,-209 L 611,-209 L 613,-188 L 617,-189 L 615,-209 z"
         id="line80"
         style="fill:#cccccc;stroke:none" />
      <path
         d="M 614,-189 L 614,-189"
         id="line110"
         style="fill:#cccccc;stroke:none" />
      <path
         d="M 613,-188 L 613,-188"
         id="line114"
         style="fill:#cccccc;stroke:none" />
      <path
         d="M 599,-207 L 599,-207"
         id="line542"
         style="fill:#cccccc;stroke:none" />
      <path
         d="M 600,-207 L 600,-207"
         id="line546"
         style="fill:#cccccc;stroke:none" />
      <path
         d="M 599,-207 L 599,-207"
         id="line550"
         style="fill:#cccccc;stroke:none" />
      <path
         d="M 596,-206 L 600,-207 L 602,-186 L 598,-186 L 596,-206 z"
         id="line560"
         style="fill:#cccccc;stroke:none" />
      <path
         d="M 583,-183 L 587,-184 L 584,-204 L 580,-204 L 583,-183 z"
         id="line1042"
         style="fill:#cccccc;stroke:none" />
      <path
         d="M 568,-180 L 572,-181 L 569,-202 L 565,-201 L 568,-180 z"
         id="line1520"
         style="fill:#cccccc;stroke:none" />
      <path
         d="M 552,-178 L 556,-178 L 553,-199 L 549,-199 L 552,-178 z"
         id="line2000"
         style="fill:#cccccc;stroke:none" />
      <path
         d="M 536,-175 L 540,-176 L 537,-197 L 533,-196 L 536,-175 z"
         id="line2480"
         style="fill:#cccccc;stroke:none" />
      <path
         d="M 579.23623,-212.81985 A 12.621359,6.3948221 0 1 1 553.99351,-212.81985 A 12.621359,6.3948221 0 1 1 579.23623,-212.81985 z"
         transform="matrix(0.9825474,-0.1860125,0.2072245,1.0945923,53.990404,134.55986)"
         id="path20764"
         style="fill:#bcbcbc;fill-opacity:1;stroke:none" />
      <path
         d="M 579.23623,-212.81985 A 12.621359,6.3948221 0 1 1 553.99351,-212.81985 A 12.621359,6.3948221 0 1 1 579.23623,-212.81985 z"
         transform="matrix(0.9825474,-0.1860125,0.2072245,1.0945923,21.679724,139.49621)"
         id="path20766"
         style="fill:#cccccc;stroke:none" />
      <path
         d="M 579.23623,-212.81985 A 12.621359,6.3948221 0 1 1 553.99351,-212.81985 A 12.621359,6.3948221 0 1 1 579.23623,-212.81985 z"
         transform="matrix(0.5332586,-1.3276686e-2,7.8879832e-3,1.113937,247.91052,43.158085)"
         id="path20768"
         style="fill:#b7b7b7;fill-opacity:1;stroke:none" />
      <path
         d="M 579.23623,-212.81985 A 12.621359,6.3948221 0 1 1 553.99351,-212.81985 A 12.621359,6.3948221 0 1 1 579.23623,-212.81985 z"
         transform="matrix(0.3632619,-9.0886907e-2,0.1834636,1.0982421,412.67576,79.193231)"
         id="path20770"
         style="fill:#b5b5b5;fill-opacity:1;stroke:none" />
      <path
         d="M 579.23623,-212.81985 A 12.621359,6.3948221 0 1 1 553.99351,-212.81985 A 12.621359,6.3948221 0 1 1 579.23623,-212.81985 z"
         transform="matrix(0.1975202,-3.4020555e-2,0.1140159,1.108077,507.68247,46.708991)"
         id="path20772"
         style="fill:#cccccc;stroke:none" />
      <path
         d="M 579.23623,-212.81985 A 12.621359,6.3948221 0 1 1 553.99351,-212.81985 A 12.621359,6.3948221 0 1 1 579.23623,-212.81985 z"
         transform="matrix(0.9030062,-0.1860125,0.1904488,1.0945923,141.93604,126.81875)"
         id="path20774"
         style="fill:#cccccc;stroke:none" />
      <path
         d="M 579.23623,-212.81985 A 12.621359,6.3948221 0 1 1 553.99351,-212.81985 A 12.621359,6.3948221 0 1 1 579.23623,-212.81985 z"
         transform="matrix(0.9030062,-0.1860125,0.1904488,1.0945923,140.47757,127.04313)"
         id="path20776"
         style="fill:#c2c2c2;fill-opacity:1;stroke:none" />
      <path
         d="M 579.23623,-212.81985 A 12.621359,6.3948221 0 1 1 553.99351,-212.81985 A 12.621359,6.3948221 0 1 1 579.23623,-212.81985 z"
         transform="matrix(0.1975202,-3.4020555e-2,0.1140159,1.108077,511.27255,46.148042)"
         id="path20778"
         style="fill:#dddddd;fill-opacity:1;stroke:none" />
      <path
         d="M 579.23623,-212.81985 A 12.621359,6.3948221 0 1 1 553.99351,-212.81985 A 12.621359,6.3948221 0 1 1 579.23623,-212.81985 z"
         transform="matrix(0.3632619,-9.0886907e-2,0.1834636,1.0982421,417.27554,78.295712)"
         id="path20780"
         style="fill:#cccccc;stroke:none" />
      <path
         d="M 579.23623,-212.81985 A 12.621359,6.3948221 0 1 1 553.99351,-212.81985 A 12.621359,6.3948221 0 1 1 579.23623,-212.81985 z"
         transform="matrix(0.5332586,-1.3276686e-2,7.8879832e-3,1.113937,251.72498,42.597136)"
         id="path20782"
         style="fill:#d9d9d9;fill-opacity:1;stroke:none" />
      <path
         d="M 579.23623,-212.81985 A 12.621359,6.3948221 0 1 1 553.99351,-212.81985 A 12.621359,6.3948221 0 1 1 579.23623,-212.81985 z"
         transform="matrix(0.9825474,-0.1860125,0.2072245,1.0945923,20.894395,139.6084)"
         id="path20784"
         style="fill:#cccccc;stroke:none" />
    </g>
    <path
       d="M 284,238 L 284,226 L 284,226 L 279,217 L 273,211 L 273,211 L 264,212 L 255,215 L 255,215 L 245,220 L 235,223 L 235,223 L 225,222 L 219,220 L 214,217 L 214,217 L 209,212 L 205,207 L 205,207 L 198,195 L 198,195 L 193,184 L 192,178 L 193,169 L 193,169 L 199,155 L 206,138 L 214,122 L 222,107 L 235,78 L 230,71 L 227,65 L 223,58 L 222,58 L 220,58 L 212,59 L 202,59 L 193,56 L 193,56 L 190,52 L 186,46 L 183,40 L 181,34 L 181,34 L 179,23 L 179,11 L 179,11 L 179,4 L 180,-1 L 180,-1 L 184,-15 L 184,-15 L 194,-29 L 205,-42 L 205,-42 L 215,-50 L 223,-57 L 223,-57 L 225,-66 L 224,-76 L 217,-86 L 207,-93 L 193,-95 L 176,-92 L 159,-83 L 143,-72 L 143,-72 L 129,-61 L 122,-55 L 115,-48 L 115,-48 L 109,-39 L 102,-30 L 95,-19 L 87,-8 L 87,-8 L 77,3 L 67,15 L 56,26 L 46,36 L 46,36 L 38,43 L 30,49 L 21,53 L 12,56 L 12,56 L 0,59 L -12,62 L -26,64 L -40,66 L -40,66 L -52,67 L -64,67 L -75,69 L -75,69 L -88,70 L -88,70 L -101,71 L -113,72 L -138,76 L -138,76 L -161,85 L -184,100 L -184,100 L -213,131 L -238,166 L -238,166 L -246,192 L -247,219 L -247,219 L -246,254 L -241,290 L -241,290 L -233,321 L -227,336 L -221,351 L -221,351 L -213,368 L -208,376 L -204,385 L -199,393 L -194,402 L -194,402 L -184,419 L -184,419 L -174,439 L -164,458 L -154,476 L -149,484 L -144,492 L -144,492 L -140,498 L -137,504 L -137,504 L -129,513 L -122,521 L -113,528 L -113,528 L -102,536 L -97,539 L -91,542 L -85,545 L -73,550 L -67,551 L -67,551 L -56,553 L -45,553 L -34,551 L -23,548 L -23,548 L -12,544 L -2,539 L -2,539 L 19,523 L 19,523 L 42,500 L 54,487 L 64,475 L 64,475 L 72,464 L 80,453 L 87,442 L 90,436 L 94,430 L 94,430 L 98,423 L 102,415 L 106,407 L 110,399 L 114,391 L 118,384 L 118,384 L 126,370 L 126,370 L 131,359 L 137,351 L 142,343 L 147,336 L 147,336 L 153,330 L 160,324 L 167,319 L 175,315 L 175,315 L 183,312 L 191,309 L 191,309 L 208,305 L 208,305 L 224,299 L 240,292 L 240,292 L 253,283 L 264,273 L 264,273 L 274,262 L 281,251 L 284,238 z M -85,69 L -85,69"
       id="line4810"
       style="fill:#ff0000;stroke:none" />
    <path
       d="M 202,231 L 207,236 L 212,240 L 217,243 L 217,243 L 228,247 L 241,247 L 252,244 L 263,239 L 272,235 L 275,237 L 275,242 L 270,254 L 261,267 L 248,278 L 233,287 L 219,292 L 205,296 L 190,300 L 182,303 L 170,307 L 167,308 L 160,312 L 160,312 L 153,317 L 146,322 L 140,329 L 134,338 L 134,338 L 128,347 L 122,356 L 116,366 L 110,377 L 110,377 L 105,388 L 99,399 L 93,410 L 87,421 L 87,421 L 76,442 L 76,442 L 63,462 L 51,478 L 51,478 L 41,490 L 32,498 L 32,498 L 25,502 L 21,502 L 18,501 L 16,497 L 13,492 L 9,481 L 9,481 L 9,469 L 11,455 L 11,455 L 13,438 L 15,419 L 15,419 L 14,396 L 14,396 L 13,383 L 11,373 L 11,373 L 9,366 L 6,360 L 2,352 L -3,340 L -3,340 L -15,316 L -29,289 L -43,261 L -55,237 L -55,237 L -61,226 L -63,220 L -64,212 L -64,212 L -63,203 L -60,193 L -57,184 L -52,174 L -48,168 L -40,161 L -6,140 L 3,136 L 14,133 L 14,133 L 23,130 L 36,128 L 36,128 L 48,125 L 60,123 L 60,123 L 71,120 L 81,116 L 91,113 L 101,108 L 101,108 L 109,103 L 116,97 L 116,97 L 122,91 L 129,85 L 135,78 L 141,72 L 141,72 L 151,62 L 157,56 L 159,54 L 163,53 L 166,53 L 169,57 L 171,62 L 171,68 L 172,83 L 175,105 L 179,132 L 182,182 L 185,196 L 187,204 L 187,204 L 190,213 L 190,213 L 198,226 M 50,466 L 50,466 M 198,226 L 202,231 M 200,296 L 200,296"
       id="line9594"
       style="fill:#ffffff;stroke:none" />
    <path
       d="M -91,258 L -39,361 L -34.611815,362.79357 L 10,323 L -34.111815,223.25441 L -38,221 L -38,221 L -91,258 z"
       id="path12444"
       style="fill:#b7b7b7;fill-opacity:1;stroke:none" />
    <path
       d="M -87,260 L -35,363 L 14,325 L -34,223 L -34,223 L -87,260 z"
       id="line13214"
       style="fill:#cccccc;stroke:none" />
    <path
       d="M 547,-113 L 545,-114 L 539,-109 L 197,167 L 186,173 L 181,174 L 175,174 L 168,174 L 159,164 L 150,148 L 144,130 L 140,114 L 141,111 L 148,104 L 149,104 L 158,96 L 498,-145 L 504,-149 L 506,-150 L 507,-151 L 507,-151 L 510,-156 L 513,-160 L 514,-167 L 514,-173 L 515,-178 L 518,-180 L 520,-181 L 527,-182 L 611,-197 L 623,-199 L 629,-199 L 632,-199 L 634,-199 L 634,-199 L 637,-197 L 640,-193 L 643,-189 L 646,-183 L 647,-178 L 648,-172 L 648,-165 L 647,-159 L 645,-154 L 642,-150 L 638,-148 L 635,-147 L 628,-146 L 622,-145 L 622,-145 L 618,-145 L 614,-145 L 611,-147 L 609,-148 L 607,-145 L 604,-140 L 599,-134 L 591,-124 L 584,-114 L 580,-109 L 578,-107 L 574,-106 L 571,-106 L 564,-105 L 561,-105 L 557,-106 L 553,-109 L 547,-113 z"
       id="line5258"
       style="fill:#4d4d4d;stroke:none" />
    <path
       d="M 162,187 L 129,114 L 127,110 L 123,108 L 119,107 L 115,109 L 112,112 L 110,117 L 109,122 L 111,127 L 144,201 L 146,205 L 150,207 L 154,207 L 158,206 L 161,202 L 163,197 L 163,192 L 162,187 z"
       id="path12455"
       style="fill:#dcdcdc;fill-opacity:1;stroke:#dcdcdc;stroke-opacity:1" />
    <path
       d="M 166,189 L 133,116 L 131,112 L 127,110 L 123,109 L 119,111 L 116,114 L 114,119 L 113,124 L 115,129 L 148,203 L 150,207 L 154,209 L 158,209 L 162,208 L 165,204 L 167,199 L 167,194 L 166,189 z"
       id="line8336"
       style="fill:#ffffff;stroke:#dcdcdc;stroke-opacity:1" />
    <path
       d="M 56,320 L 50,349 L 43,352 L 37,352 L 31,349 L 26,343 L 24,336 L 25,327 L 28,320 L 33,314 L 39,311 L 46,311 L 52,314 L 56,320 z"
       id="line9976"
       style="fill:#ffffff;stroke:#dcdcdc;stroke-opacity:1" />
    <path
       d="M 49,450 L 42,480 L 36,483 L 29,484 L 23,481 L 19,475 L 17,467 L 17,459 L 20,451 L 25,445 L 32,442 L 39,442 L 45,445 L 49,450 z"
       id="line9600"
       style="fill:#ffffff;stroke:#dcdcdc;stroke-opacity:1" />
    <path
       d="M 58,388 L 52,417 L 45,420 L 39,420 L 33,417 L 28,412 L 26,404 L 27,396 L 30,388 L 35,382 L 41,379 L 48,379 L 54,382 L 58,388 z"
       id="line9696"
       style="fill:#ffffff;stroke:#dcdcdc;stroke-opacity:1" />
    <path
       d="M 18,298 L 21,301 L 26,302 L 30,301 L 34,298 L 37,293 L 38,288 L 37,283 L 13,201 L 11,196 L 7,193 L 3,191 L -2,192 L -5,195 L -8,200 L -9,205 L -8,211 L 15,293 L 18,298 z"
       id="path12457"
       style="fill:#dcdcdc;fill-opacity:1;stroke:#dcdcdc;stroke-opacity:1" />
    <path
       d="M 22,300 L 25,303 L 30,304 L 34,303 L 38,300 L 41,295 L 42,290 L 41,285 L 17,203 L 15,198 L 11,195 L 7,193 L 2,194 L -1,197 L -4,202 L -5,207 L -4,213 L 19,295 L 22,300 z"
       id="line9344"
       style="fill:#ffffff;stroke:#dcdcdc;stroke-opacity:1" />
    <path
       d="M 68,158 L 102,232 L 104,237 L 103,242 L 101,247 L 98,251 L 94,252 L 90,252 L 86,250 L 83,246 L 49,171 L 47,166 L 48,161 L 50,156 L 53,152 L 57,151 L 62,151 L 66,153 L 68,158 z"
       id="path12459"
       style="fill:#dcdcdc;fill-opacity:1;stroke:#dcdcdc;stroke-opacity:1" />
    <path
       d="M 72,160 L 106,234 L 108,239 L 107,244 L 105,249 L 102,253 L 98,254 L 94,254 L 90,252 L 87,248 L 53,173 L 51,168 L 52,163 L 54,158 L 57,154 L 61,153 L 66,153 L 70,155 L 72,160 z"
       id="line9858"
       style="fill:#ffffff;stroke:#dcdcdc;stroke-opacity:1" />
    <path
       d="M 40,347.22515 L 52.106717,348.77974 L 50,345.22515 L 53,340.22515 L 56,335.22515 L 56,329.22515 L 54,323.22515 L 58.884014,318.11411 L 47,316.22515 L 42,316.22515 L 37,318.22515 L 33,322.22515 L 31,328.22515 L 30,334.22515 L 32,340.22515 L 35,345.22515 L 40,347.22515 z"
       id="path2440"
       style="fill:#dcdcdc;fill-opacity:1;stroke:#dcdcdc;stroke-opacity:1" />
    <path
       d="M 32,479.22515 L 28,477.22515 L 28,477.22515 L 25,473.22515 L 25,473.22515 L 23,467.22515 L 23,467.22515 L 23,461.22515 L 23,461.22515 L 26,455.22515 L 26,455.22515 L 30,450.22515 L 30,450.22515 L 34,448.22515 L 34,448.22515 L 39,448.22515 L 39,448.22515 L 51.064795,450.05491 L 47,454.22515 L 49,460.22515 L 48,466.22515 L 46,472.22515 L 42,476.22515 L 44.213615,480.84239 L 32,479.22515 z M 38,464.22515 L 38,464.22515"
       id="path2442"
       style="fill:#dcdcdc;fill-opacity:1;stroke:#dcdcdc;stroke-opacity:1" />
    <path
       d="M 37,413.22515 L 34,409.22515 L 34,409.22515 L 32,403.22515 L 33,397.22515 L 35,391.22515 L 39,387.22515 L 44,384.22515 L 49,384.22515 L 60.915975,386.11862 L 56,391.22515 L 58,397.22515 L 58,403.22515 L 55,409.22515 L 51,413.22515 L 54.149913,417.84239 L 42,416.22515 M 37,413.22515 L 42,416.22515 M 42,416.22515 L 36,412.22515"
       id="path2444"
       style="fill:#dcdcdc;fill-opacity:1;stroke:#dcdcdc;stroke-opacity:1" />
    <path
       d="M 52,349 L 57,349 L 62,347 L 65,342 L 68,337 L 68,331 L 66,325 L 63,320 L 59,318 L 54,318 L 49,320 L 45,324 L 43,330 L 42,336 L 44,342 L 47,347 L 52,349 z"
       id="line9504"
       style="fill:#ffffff;stroke:#dcdcdc;stroke-opacity:1" />
    <path
       d="M 44,481 L 40,479 L 40,479 L 37,475 L 37,475 L 35,469 L 35,469 L 35,463 L 35,463 L 38,457 L 38,457 L 42,452 L 42,452 L 46,450 L 46,450 L 51,450 L 51,450 L 56,452 L 59,456 L 61,462 L 60,468 L 58,474 L 54,478 L 50,481 L 44,481 z M 50,466 L 50,466"
       id="line9032"
       style="fill:#ffffff;stroke:#dcdcdc;stroke-opacity:1" />
    <path
       d="M 49,415 L 46,411 L 46,411 L 44,405 L 45,399 L 47,393 L 51,389 L 56,386 L 61,386 L 65,389 L 68,393 L 70,399 L 70,405 L 67,411 L 63,415 L 59,418 L 54,418 M 49,415 L 54,418 M 54,418 L 48,414"
       id="line9184"
       style="fill:#ffffff;stroke:#dcdcdc;stroke-opacity:1" />
    <path
       d="M -72.066059,265.28473 L 513.97567,-146.43793 L 548.98281,-175.35914"
       id="path2446"
       style="fill:none;fill-rule:evenodd;stroke:#818181;stroke-width:1px;stroke-linecap:butt;stroke-linejoin:miter;stroke-opacity:1" />
    <path
       d="M -63.913907,277.36702 L 520.04426,-141.21605 L 565.7437,-179.09278"
       id="path2448"
       style="fill:none;fill-rule:evenodd;stroke:#818181;stroke-width:1px;stroke-linecap:butt;stroke-linejoin:miter;stroke-opacity:1" />
    <path
       d="M -56.949467,292.48361 L 525.34417,-135.30928 L 581.66366,-181.37862"
       id="path2450"
       style="fill:none;fill-rule:evenodd;stroke:#818181;stroke-width:1px;stroke-linecap:butt;stroke-linejoin:miter;stroke-opacity:1" />
    <path
       d="M -48.490997,308.23595 L 530.82036,-129.81286 L 596.39301,-183.31479"
       id="path2452"
       style="fill:none;fill-rule:evenodd;stroke:#818181;stroke-width:1px;stroke-linecap:butt;stroke-linejoin:miter;stroke-opacity:1" />
    <path
       d="M -39.856247,324.49402 L 536.86295,-123.60845 L 611.3102,-185.53127"
       id="path2454"
       style="fill:none;fill-rule:evenodd;stroke:#818181;stroke-width:1px;stroke-linecap:butt;stroke-linejoin:miter;stroke-opacity:1" />
    <path
       d="M -33.504446,341.98603 L 542.89398,-117.11505 L 627.57983,-189.05395"
       id="path2456"
       style="fill:none;fill-rule:evenodd;stroke:#818181;stroke-width:1px;stroke-linecap:butt;stroke-linejoin:miter;stroke-opacity:1" />
    <g
       id="g12255"
       style="fill:#cccccc;stroke:none">
      <g
         transform="translate(77.168285,6.661273)"
         id="g12249"
         style="fill:#cccccc;stroke:none">
        <path
           d="M 558.40625,-201.3125 L 544.53125,-199.09375 L 544.53125,-199.0625 C 543.70445,-198.82234 543.06252,-197.72249 543.0625,-196.375 C 543.0625,-194.85265 543.89019,-193.62499 544.875,-193.625 C 544.9083,-193.625 544.9359,-193.62221 544.96875,-193.625 C 545.01355,-193.6288 545.04989,-193.64742 545.09375,-193.65625 L 545.21875,-193.65625 C 545.22688,-193.65883 545.24191,-193.6535 545.25,-193.65625 L 558.53125,-195.875 L 558.40625,-201.3125 z"
           id="path12251"
           style="fill:#cccccc;fill-rule:evenodd;stroke:none;stroke-width:0.67770791px;stroke-linecap:butt;stroke-linejoin:miter;stroke-opacity:1" />
        <path
           d="M 547.00327,-195.06845 A 2.6616583,4.0249467 0 1 1 541.67996,-195.06845 A 2.6616583,4.0249467 0 1 1 547.00327,-195.06845 z"
           transform="matrix(0.6702996,0,0,0.6851981,193.55694,-64.918623)"
           id="path12253"
           style="fill:#ffffff;fill-opacity:1;fill-rule:evenodd;stroke:none;stroke-width:1px;stroke-linecap:butt;stroke-linejoin:miter;stroke-opacity:1" />
      </g>
      <g
         transform="translate(62.206041,9.5307444)"
         id="g12243"
         style="fill:#cccccc;stroke:none">
        <path
           d="M 558.40625,-201.3125 L 544.53125,-199.09375 L 544.53125,-199.0625 C 543.70445,-198.82234 543.06252,-197.72249 543.0625,-196.375 C 543.0625,-194.85265 543.89019,-193.62499 544.875,-193.625 C 544.9083,-193.625 544.9359,-193.62221 544.96875,-193.625 C 545.01355,-193.6288 545.04989,-193.64742 545.09375,-193.65625 L 545.21875,-193.65625 C 545.22688,-193.65883 545.24191,-193.6535 545.25,-193.65625 L 558.53125,-195.875 L 558.40625,-201.3125 z"
           id="path12245"
           style="fill:#cccccc;fill-rule:evenodd;stroke:none;stroke-width:0.67770791px;stroke-linecap:butt;stroke-linejoin:miter;stroke-opacity:1" />
        <path
           d="M 547.00327,-195.06845 A 2.6616583,4.0249467 0 1 1 541.67996,-195.06845 A 2.6616583,4.0249467 0 1 1 547.00327,-195.06845 z"
           transform="matrix(0.6702996,0,0,0.6851981,193.55694,-64.918623)"
           id="path12247"
           style="fill:#ffffff;fill-opacity:1;fill-rule:evenodd;stroke:none;stroke-width:1px;stroke-linecap:butt;stroke-linejoin:miter;stroke-opacity:1" />
      </g>
      <g
         transform="translate(47.346278,11.990291)"
         id="g12237"
         style="fill:#cccccc;stroke:none">
        <path
           d="M 558.40625,-201.3125 L 544.53125,-199.09375 L 544.53125,-199.0625 C 543.70445,-198.82234 543.06252,-197.72249 543.0625,-196.375 C 543.0625,-194.85265 543.89019,-193.62499 544.875,-193.625 C 544.9083,-193.625 544.9359,-193.62221 544.96875,-193.625 C 545.01355,-193.6288 545.04989,-193.64742 545.09375,-193.65625 L 545.21875,-193.65625 C 545.22688,-193.65883 545.24191,-193.6535 545.25,-193.65625 L 558.53125,-195.875 L 558.40625,-201.3125 z"
           id="path12239"
           style="fill:#cccccc;fill-rule:evenodd;stroke:none;stroke-width:0.67770791px;stroke-linecap:butt;stroke-linejoin:miter;stroke-opacity:1" />
        <path
           d="M 547.00327,-195.06845 A 2.6616583,4.0249467 0 1 1 541.67996,-195.06845 A 2.6616583,4.0249467 0 1 1 547.00327,-195.06845 z"
           transform="matrix(0.6702996,0,0,0.6851981,193.55694,-64.918623)"
           id="path12241"
           style="fill:#ffffff;fill-opacity:1;fill-rule:evenodd;stroke:none;stroke-width:1px;stroke-linecap:butt;stroke-linejoin:miter;stroke-opacity:1" />
      </g>
      <g
         transform="translate(31.871629,14.757282)"
         id="g12231"
         style="fill:#cccccc;stroke:none">
        <path
           d="M 558.40625,-201.3125 L 544.53125,-199.09375 L 544.53125,-199.0625 C 543.70445,-198.82234 543.06252,-197.72249 543.0625,-196.375 C 543.0625,-194.85265 543.89019,-193.62499 544.875,-193.625 C 544.9083,-193.625 544.9359,-193.62221 544.96875,-193.625 C 545.01355,-193.6288 545.04989,-193.64742 545.09375,-193.65625 L 545.21875,-193.65625 C 545.22688,-193.65883 545.24191,-193.6535 545.25,-193.65625 L 558.53125,-195.875 L 558.40625,-201.3125 z"
           id="path12233"
           style="fill:#cccccc;fill-rule:evenodd;stroke:none;stroke-width:0.67770791px;stroke-linecap:butt;stroke-linejoin:miter;stroke-opacity:1" />
        <path
           d="M 547.00327,-195.06845 A 2.6616583,4.0249467 0 1 1 541.67996,-195.06845 A 2.6616583,4.0249467 0 1 1 547.00327,-195.06845 z"
           transform="matrix(0.6702996,0,0,0.6851981,193.55694,-64.918623)"
           id="path12235"
           style="fill:#ffffff;fill-opacity:1;fill-rule:evenodd;stroke:none;stroke-width:1px;stroke-linecap:butt;stroke-linejoin:miter;stroke-opacity:1" />
      </g>
      <g
         transform="translate(16.089536,17.216829)"
         id="g12225"
         style="fill:#cccccc;stroke:none">
        <path
           d="M 558.40625,-201.3125 L 544.53125,-199.09375 L 544.53125,-199.0625 C 543.70445,-198.82234 543.06252,-197.72249 543.0625,-196.375 C 543.0625,-194.85265 543.89019,-193.62499 544.875,-193.625 C 544.9083,-193.625 544.9359,-193.62221 544.96875,-193.625 C 545.01355,-193.6288 545.04989,-193.64742 545.09375,-193.65625 L 545.21875,-193.65625 C 545.22688,-193.65883 545.24191,-193.6535 545.25,-193.65625 L 558.53125,-195.875 L 558.40625,-201.3125 z"
           id="path12227"
           style="fill:#cccccc;fill-rule:evenodd;stroke:none;stroke-width:0.67770791px;stroke-linecap:butt;stroke-linejoin:miter;stroke-opacity:1" />
        <path
           d="M 547.00327,-195.06845 A 2.6616583,4.0249467 0 1 1 541.67996,-195.06845 A 2.6616583,4.0249467 0 1 1 547.00327,-195.06845 z"
           transform="matrix(0.6702996,0,0,0.6851981,193.55694,-64.918623)"
           id="path12229"
           style="fill:#ffffff;fill-opacity:1;fill-rule:evenodd;stroke:none;stroke-width:1px;stroke-linecap:butt;stroke-linejoin:miter;stroke-opacity:1" />
      </g>
      <g
         transform="translate(-0.1024811,19.983819)"
         id="g12221"
         style="fill:#cccccc;stroke:none">
        <path
           d="M 558.40625,-201.3125 L 544.53125,-199.09375 L 544.53125,-199.0625 C 543.70445,-198.82234 543.06252,-197.72249 543.0625,-196.375 C 543.0625,-194.85265 543.89019,-193.62499 544.875,-193.625 C 544.9083,-193.625 544.9359,-193.62221 544.96875,-193.625 C 545.01355,-193.6288 545.04989,-193.64742 545.09375,-193.65625 L 545.21875,-193.65625 C 545.22688,-193.65883 545.24191,-193.6535 545.25,-193.65625 L 558.53125,-195.875 L 558.40625,-201.3125 z"
           id="path12213"
           style="fill:#cccccc;fill-rule:evenodd;stroke:none;stroke-width:0.67770791px;stroke-linecap:butt;stroke-linejoin:miter;stroke-opacity:1" />
        <path
           d="M 547.00327,-195.06845 A 2.6616583,4.0249467 0 1 1 541.67996,-195.06845 A 2.6616583,4.0249467 0 1 1 547.00327,-195.06845 z"
           transform="matrix(0.6702996,0,0,0.6851981,193.55694,-64.918623)"
           id="path12215"
           style="fill:#ffffff;fill-opacity:1;fill-rule:evenodd;stroke:none;stroke-width:1px;stroke-linecap:butt;stroke-linejoin:miter;stroke-opacity:1" />
      </g>
    </g>
  </g>
</svg>
